<svg width="120" height="42" viewBox="0 0 120 42" fill="none" xmlns="http://www.w3.org/2000/svg">
<path d="M55.8887 30H51.5547L51.582 26.8008H55.8887C56.9642 26.8008 57.8711 26.5592 58.6094 26.0762C59.3477 25.584 59.9036 24.8685 60.2773 23.9297C60.6602 22.9909 60.8516 21.8561 60.8516 20.5254V19.5547C60.8516 18.5339 60.7422 17.6361 60.5234 16.8613C60.3138 16.0866 59.9993 15.4349 59.5801 14.9062C59.1608 14.3776 58.6458 13.9811 58.0352 13.7168C57.4245 13.4434 56.7227 13.3066 55.9297 13.3066H51.4727V10.0938H55.9297C57.2604 10.0938 58.4772 10.3216 59.5801 10.7773C60.6921 11.224 61.6536 11.8665 62.4648 12.7051C63.276 13.5436 63.9004 14.5462 64.3379 15.7129C64.7845 16.8704 65.0078 18.1602 65.0078 19.582V20.5254C65.0078 21.9382 64.7845 23.2279 64.3379 24.3945C63.9004 25.5612 63.276 26.5638 62.4648 27.4023C61.6628 28.2318 60.7012 28.8743 59.5801 29.3301C58.4681 29.7767 57.2376 30 55.8887 30ZM53.8789 10.0938V30H49.7773V10.0938H53.8789ZM67.1133 22.7539V22.4668C67.1133 21.3822 67.2682 20.3841 67.5781 19.4727C67.888 18.5521 68.3392 17.7546 68.9316 17.0801C69.5241 16.4056 70.2533 15.8815 71.1191 15.5078C71.985 15.125 72.9785 14.9336 74.0996 14.9336C75.2207 14.9336 76.2188 15.125 77.0938 15.5078C77.9688 15.8815 78.7025 16.4056 79.2949 17.0801C79.8965 17.7546 80.3522 18.5521 80.6621 19.4727C80.972 20.3841 81.127 21.3822 81.127 22.4668V22.7539C81.127 23.8294 80.972 24.8275 80.6621 25.748C80.3522 26.6595 79.8965 27.457 79.2949 28.1406C78.7025 28.8151 77.9733 29.3392 77.1074 29.7129C76.2415 30.0866 75.248 30.2734 74.127 30.2734C73.0059 30.2734 72.0078 30.0866 71.1328 29.7129C70.2669 29.3392 69.5332 28.8151 68.9316 28.1406C68.3392 27.457 67.888 26.6595 67.5781 25.748C67.2682 24.8275 67.1133 23.8294 67.1133 22.7539ZM71.0508 22.4668V22.7539C71.0508 23.3737 71.1055 23.9525 71.2148 24.4902C71.3242 25.028 71.4974 25.502 71.7344 25.9121C71.9805 26.3132 72.2995 26.6276 72.6914 26.8555C73.0833 27.0833 73.5618 27.1973 74.127 27.1973C74.6738 27.1973 75.1432 27.0833 75.5352 26.8555C75.9271 26.6276 76.2415 26.3132 76.4785 25.9121C76.7155 25.502 76.8887 25.028 76.998 24.4902C77.1165 23.9525 77.1758 23.3737 77.1758 22.7539V22.4668C77.1758 21.8652 77.1165 21.3001 76.998 20.7715C76.8887 20.2337 76.7109 19.7598 76.4648 19.3496C76.2279 18.9303 75.9134 18.6022 75.5215 18.3652C75.1296 18.1283 74.6556 18.0098 74.0996 18.0098C73.5436 18.0098 73.0697 18.1283 72.6777 18.3652C72.2949 18.6022 71.9805 18.9303 71.7344 19.3496C71.4974 19.7598 71.3242 20.2337 71.2148 20.7715C71.1055 21.3001 71.0508 21.8652 71.0508 22.4668ZM90.3555 30.2734C89.207 30.2734 88.1771 30.0911 87.2656 29.7266C86.3542 29.3529 85.5794 28.8379 84.9414 28.1816C84.3125 27.5254 83.8294 26.7643 83.4922 25.8984C83.1549 25.0234 82.9863 24.0938 82.9863 23.1094V22.5625C82.9863 21.4414 83.1458 20.416 83.4648 19.4863C83.7839 18.5566 84.2396 17.75 84.832 17.0664C85.4336 16.3828 86.1628 15.8587 87.0195 15.4941C87.8763 15.1204 88.8424 14.9336 89.918 14.9336C90.9661 14.9336 91.8958 15.1068 92.707 15.4531C93.5182 15.7995 94.1973 16.2917 94.7441 16.9297C95.3001 17.5677 95.7194 18.3333 96.002 19.2266C96.2845 20.1107 96.4258 21.0951 96.4258 22.1797V23.8203H84.668V21.1953H92.5566V20.8945C92.5566 20.3477 92.4564 19.86 92.2559 19.4316C92.0645 18.9941 91.7728 18.6478 91.3809 18.3926C90.9889 18.1374 90.4876 18.0098 89.877 18.0098C89.3574 18.0098 88.9108 18.1237 88.5371 18.3516C88.1634 18.5794 87.8581 18.8984 87.6211 19.3086C87.3932 19.7188 87.2201 20.2018 87.1016 20.7578C86.9922 21.3047 86.9375 21.9062 86.9375 22.5625V23.1094C86.9375 23.7018 87.0195 24.2487 87.1836 24.75C87.3568 25.2513 87.5983 25.6842 87.9082 26.0488C88.2272 26.4134 88.61 26.696 89.0566 26.8965C89.5124 27.097 90.0273 27.1973 90.6016 27.1973C91.3125 27.1973 91.9733 27.0605 92.584 26.7871C93.2038 26.5046 93.737 26.0807 94.1836 25.5156L96.0977 27.5938C95.7878 28.0404 95.3639 28.4688 94.8262 28.8789C94.2975 29.2891 93.6595 29.6263 92.9121 29.8906C92.1647 30.1458 91.3125 30.2734 90.3555 30.2734Z" fill="#F4F4F5"/>
<path d="M118.52 18.9121V22.3438H104.875V18.9121H118.52ZM113.57 13.5117V28.0039H109.838V13.5117H113.57Z" fill="#06B6D4"/>
<path d="M37.7885 23.8928C37.3593 23.562 36.8673 23.3221 36.3424 23.1875C35.8175 23.053 35.2707 23.0267 34.7353 23.1102C37.8164 19.9996 39.375 16.907 39.375 13.8752C39.375 9.53242 35.8821 6.00015 31.5886 6.00015C30.4494 5.993 29.3224 6.2353 28.2867 6.71003C27.2511 7.18477 26.3319 7.88044 25.5938 8.7482C24.8556 7.88044 23.9364 7.18477 22.9008 6.71003C21.8651 6.2353 20.7381 5.993 19.5989 6.00015C15.3054 6.00015 11.8125 9.53242 11.8125 13.8752C11.8125 15.6798 12.3441 17.4337 13.463 19.2892C12.5466 19.5214 11.7103 19.9977 11.043 20.6673L7.33195 24.3752H2.625C1.92881 24.3752 1.26113 24.6517 0.768845 25.144C0.276562 25.6363 0 26.304 0 27.0002L0 33.5627C0 34.2588 0.276562 34.9265 0.768845 35.4188C1.26113 35.9111 1.92881 36.1877 2.625 36.1877H19.6875C19.7948 36.1877 19.9017 36.1745 20.0058 36.1483L30.5058 33.5233C30.5727 33.5073 30.6381 33.4854 30.701 33.4577L37.0781 30.7441L37.1503 30.7112C37.7632 30.405 38.288 29.9478 38.6754 29.3826C39.0627 28.8175 39.2998 28.163 39.3643 27.4809C39.4288 26.7988 39.3186 26.1115 39.0441 25.4838C38.7695 24.856 38.3397 24.3085 37.7951 23.8928H37.7885ZM19.5989 8.62515C20.6155 8.61028 21.6133 8.89893 22.465 9.45421C23.3166 10.0095 23.9833 10.8062 24.3797 11.7423C24.4786 11.9831 24.6468 12.189 24.863 12.3339C25.0791 12.4788 25.3335 12.5561 25.5938 12.5561C25.854 12.5561 26.1084 12.4788 26.3245 12.3339C26.5407 12.189 26.7089 11.9831 26.8078 11.7423C27.2043 10.8062 27.8709 10.0095 28.7225 9.45421C29.5742 8.89893 30.572 8.61028 31.5886 8.62515C34.3859 8.62515 36.75 11.0287 36.75 13.8752C36.75 17.076 34.1595 20.6969 29.2589 24.3587L27.4395 24.7771C27.5992 24.1025 27.6041 23.4004 27.4539 22.7236C27.3037 22.0468 27.0022 21.4128 26.5721 20.869C26.142 20.3253 25.5944 19.8859 24.9704 19.5839C24.3463 19.2819 23.662 19.1251 22.9688 19.1252H16.5178C15.102 17.2155 14.4375 15.5355 14.4375 13.8752C14.4375 11.0287 16.8016 8.62515 19.5989 8.62515ZM2.625 27.0002H6.5625V33.5627H2.625V27.0002ZM36.0002 28.3471L29.7659 31.0016L19.5234 33.5627H9.1875V26.2307L12.9002 22.5196C13.1431 22.2748 13.4322 22.0807 13.7508 21.9486C14.0693 21.8165 14.4109 21.7491 14.7558 21.7502H22.9688C23.4909 21.7502 23.9917 21.9576 24.3609 22.3268C24.7301 22.696 24.9375 23.1968 24.9375 23.7189C24.9375 24.241 24.7301 24.7418 24.3609 25.111C23.9917 25.4802 23.4909 25.6877 22.9688 25.6877H18.375C18.0269 25.6877 17.6931 25.8259 17.4469 26.0721C17.2008 26.3182 17.0625 26.6521 17.0625 27.0002C17.0625 27.3482 17.2008 27.6821 17.4469 27.9282C17.6931 28.1744 18.0269 28.3127 18.375 28.3127H23.625C23.7238 28.3124 23.8223 28.3014 23.9187 28.2798L34.9109 25.7516L34.9617 25.7385C35.2973 25.6454 35.6554 25.6796 35.9673 25.8346C36.2791 25.9897 36.5226 26.2545 36.6509 26.5783C36.7791 26.9021 36.7832 27.2618 36.6621 27.5884C36.5411 27.9149 36.3036 28.1851 35.9953 28.3471H36.0002Z" fill="#06B6D4"/>
</svg>
